# xmcd
# 
# Track frame offsets:
#     150
#     15488
#     34831
#     59866
#     76633
#     98302
#     124222
#     147775
#     168657
#     195724
#     219541
#     241408
#     272299
# 
# Disc length: 3936
# 
# Revision: 0
# Processed by: cddbd v1.5.2PL0 Copyright (c) Steve Scherf et al.
# Submitted via: fre:ac v1.0.17
# 
DISCID=ab0f5e0d
DTITLE=Opportunity - Shine
DYEAR=2008
DGENRE=Blues
TTITLE0=Summer
TTITLE1=Pete and Manny
TTITLE2=Still Crazy After All These Years
TTITLE3=All The King«s Horses
TTITLE4=My Yard
TTITLE5=If I Were An Angel
TTITLE6=Shine On You Crazy Diamond
TTITLE7=Another Life
TTITLE8=Gorilla
TTITLE9=Crawling Up A Hill
TTITLE10=London Skies
TTITLE11=Angel Dance
TTITLE12=Wild Woman And Po Boys
EXTD=
EXTT0=
EXTT1=
EXTT2=
EXTT3=
EXTT4=
EXTT5=
EXTT6=
EXTT7=
EXTT8=
EXTT9=
EXTT10=
EXTT11=
EXTT12=
PLAYORDER=
